<?xml version="1.0" encoding="UTF-8" standalone="no"?>
<!-- Generator: Adobe Illustrator 26.3.1, SVG Export Plug-In . SVG Version: 6.00 Build 0)  -->

<svg
   version="1.1"
   id="a"
   x="0px"
   y="0px"
   viewBox="0 0 1025.4 422"
   style="enable-background:new 0 0 1025.4 422;"
   xml:space="preserve"
   sodipodi:docname="logo_2.svg"
   inkscape:version="1.1.2 (b8e25be8, 2022-02-05)"
   xmlns:inkscape="http://www.inkscape.org/namespaces/inkscape"
   xmlns:sodipodi="http://sodipodi.sourceforge.net/DTD/sodipodi-0.dtd"
   xmlns="http://www.w3.org/2000/svg"
   xmlns:svg="http://www.w3.org/2000/svg"><defs
   id="defs15" /><sodipodi:namedview
   id="namedview13"
   pagecolor="#ffffff"
   bordercolor="#cccccc"
   borderopacity="1"
   inkscape:pageshadow="0"
   inkscape:pageopacity="1"
   inkscape:pagecheckerboard="0"
   showgrid="false"
   inkscape:zoom="0.30652182"
   inkscape:cx="419.21975"
   inkscape:cy="251.20561"
   inkscape:window-width="1192"
   inkscape:window-height="880"
   inkscape:window-x="0"
   inkscape:window-y="25"
   inkscape:window-maximized="0"
   inkscape:current-layer="a" />
<path
   d="m 183.1,373.06384 h -64 v -76.4 c -2.3,1.4 -3.6,2 -4.7,2.8 -41.1,31.2 -96.2,13 -109.6,-37 -7.8,-28.8 -6.3,-57.8 6.9,-85.1 20.6,-42.3 73.9,-50.3 106.3,-16.3 1.3,1.4 2.1,3.2 3.2,4.8 0.8,-0.3 1.5,-0.7 2.3,-1 v -20 h 59.6 v 228.2 z m -62.6,-144.1 c -1.5,-8.7 -2.1,-16.1 -4.2,-23.1 -3.3,-11.2 -13.2,-18.4 -24.1,-18.6 -11,-0.2 -20.2,6.4 -24.1,18.3 -4.6,14 -4.8,28.3 -0.5,42.4 3.1,10.1 9.9,17.2 21.1,18.2 11.7,1 21,-3.8 25.7,-14.5 3.3,-7.5 4.3,-15.8 6.1,-22.7 z"
   id="path2" />
<path
   d="m 632,81.663843 h 63.9 v 77.199997 c 13,-10.6 25.7,-17 40.8,-18.3 33.3,-2.9 61.4,13.7 71.8,45.2 10.1,30.5 8.6,61 -4.6,90.7 -20.7,46.2 -82,48.1 -106.3,17.3 -1.2,-1.5 -2.5,-2.8 -5.5,-6.2 -0.4,8.6 -0.7,15 -1,22 h -59 L 632,81.663843 Z M 751,227.96384 c -1,-7 -1.5,-13.7 -3.2,-20.1 -3.1,-11.6 -11.8,-19 -22.1,-19.6 -11.4,-0.7 -22.1,5.7 -26.3,17 -5.6,15.2 -5.5,30.7 0.4,45.8 4.1,10.5 14.6,17.2 24.7,16.3 11.3,-1 19.1,-7.2 22.3,-18 2.2,-7 2.9,-14.3 4.2,-21.4 z"
   id="path4" />
<path
   d="m 334.7,199.86384 c 0.2,-14.9 -4,-20.3 -17.3,-21 -14.3,-0.7 -28.6,-0.3 -35.7,15.9 -0.6,1.5 -3.4,3 -5,2.9 -18.7,-1.7 -37.4,-3.7 -56,-5.6 -0.4,-19.3 13.4,-39.4 34.9,-44.6 20.2,-4.8 41.5,-5.6 62.4,-7.1 9.1,-0.7 18.5,0.8 27.6,2.2 35.2,5.1 52.2,24.6 52.7,60.2 0.3,20.5 -0.5,40.9 0.2,61.4 0.5,15.1 2.5,30.1 3.9,46 -16.3,0 -34.7,0.2 -53.1,-0.3 -2.4,-0.1 -5.3,-3.7 -6.8,-6.4 -2,-3.5 -2.7,-7.6 -4.2,-12.2 -25,23.3 -54.9,26.8 -86.2,20.2 -34.6,-7.3 -49.4,-45.7 -29.3,-73.4 7.6,-10.5 18.9,-15.2 30.7,-18.2 17.6,-4.5 35.6,-7.7 53.2,-12 9.7,-2 19,-5.3 28,-8 z m 0.1,32.6 c -14.4,4.3 -28.2,8 -41.7,12.7 -11.1,3.8 -15.5,11.1 -13.7,20 1.8,8.8 9.8,13.7 21.6,13.1 24,-1.3 36.1,-17.1 33.8,-45.8 z"
   id="path6" />
<path
   d="m 842.7,192.06384 c 0.5,-22 16.6,-41.8 40.6,-46.5 18.6,-3.6 37.9,-4.2 57,-5.1 9.8,-0.4 19.7,1.1 29.5,2.4 32,4.3 50,24.7 50.4,57.2 0.3,24 -0.5,48 0.3,71.9 0.4,12.5 3.1,25 4.9,38.3 -17,0 -35.4,0.2 -53.8,-0.3 -2.4,-0.1 -5.3,-3.7 -6.8,-6.3 -2,-3.5 -2.8,-7.6 -4.3,-12.2 -25,23.3 -54.5,26.3 -85.5,20.3 -22.5,-4.3 -37.3,-21.8 -38.4,-43 -1.2,-22.4 9.5,-39.2 32.3,-46.3 18.8,-5.9 38.5,-9.1 57.7,-13.8 7.4,-1.8 14.8,-3.8 22,-6.4 3.2,-1.1 8.5,-4.3 8.2,-5.8 -0.8,-5 -2.4,-11.2 -6,-14.2 -11.2,-9.2 -38.2,-2.4 -45.7,10.3 -1.3,2.1 -3.8,5.3 -5.5,5.1 -19.1,-1.5 -38,-3.6 -56.9,-5.6 z m 113.9,40.4 c -14.6,4.5 -28.7,8.3 -42.4,13.2 -10.8,3.9 -14.6,10.9 -12.8,19.6 1.7,8.3 8.8,13 19.7,13.1 24.7,0.2 37.9,-16.2 35.5,-45.9 z"
   id="path8" />
<path
   d="m 423.9,264.16384 c 20,-1.9 39,-4 58.1,-5.4 2.5,-0.2 6.2,2.3 7.6,4.6 8.9,14.7 29.4,20.7 44.1,11.5 3.9,-2.4 7.9,-8.4 7.8,-12.6 -0.1,-3.5 -5.6,-8.9 -9.6,-10 -17,-4.5 -34.3,-7.5 -51.4,-11.3 -6.8,-1.5 -13.8,-3.1 -20.2,-5.9 -16.4,-7.1 -26.9,-19.5 -28.9,-37.6 -2.1,-18.8 4.4,-34.7 21,-44 10.3,-5.8 22.4,-10.7 34,-11.5 20.9,-1.4 42.2,-1.2 63,1.5 23.2,3 37.5,18.8 45.6,41.6 -19.4,1.9 -38.1,3.9 -56.8,5.4 -1.9,0.1 -4.5,-2.5 -5.9,-4.6 -7.2,-10.8 -25.5,-15.9 -36.6,-9 -3.2,2 -6.5,7.1 -6.3,10.5 0.2,3.3 4.5,8.3 7.8,9.1 14.3,3.3 28.9,5 43.3,7.9 10,2 20.1,4.2 29.5,7.9 16.5,6.5 27.7,18.6 30.2,36.6 2.7,20 -3.7,37.7 -20.7,48.4 -11.5,7.3 -25.4,12.2 -38.8,14.7 -23.7,4.4 -47.8,3.3 -71.4,-2.2 -24,-5.5 -39.1,-20.4 -45.4,-45.6 z"
   id="path10" />
</svg>
