<?xml version="1.0" encoding="UTF-8"?><svg id="a" xmlns="http://www.w3.org/2000/svg" viewBox="0 0 1025.38 422.03"><path d="M183.09,422.03h-64v-76.4c-2.34,1.38-3.63,1.97-4.73,2.81-41.06,31.23-96.19,13.03-109.63-36.97-7.75-28.83-6.34-57.77,6.93-85.05,20.62-42.38,73.91-50.41,106.36-16.38,1.3,1.36,2.12,3.17,3.17,4.77,.76-.34,1.51-.69,2.27-1.03v-20h59.64v228.27Zm-62.58-144.16c-1.53-8.73-2.12-16.12-4.19-23.07-3.35-11.25-13.25-18.4-24.11-18.64-10.99-.24-20.24,6.41-24.13,18.28-4.59,14-4.81,28.35-.48,42.42,3.13,10.15,9.86,17.24,21.12,18.16,11.68,.96,21.03-3.81,25.74-14.47,3.27-7.4,4.29-15.8,6.04-22.68Z"/><path d="M631.99,130.62h63.92v77.23c12.99-10.64,25.7-16.98,40.83-18.3,33.35-2.92,61.36,13.68,71.78,45.25,10.06,30.49,8.63,61.02-4.64,90.66-20.69,46.22-82.02,48.1-106.26,17.34-1.16-1.47-2.5-2.81-5.54-6.19-.41,8.59-.71,14.96-1.04,22h-59.05V130.62Zm119.02,146.3c-1.05-6.96-1.45-13.71-3.15-20.12-3.1-11.65-11.85-18.98-22.09-19.6-11.43-.69-22.06,5.69-26.27,17-5.64,15.17-5.49,30.7,.37,45.79,4.09,10.54,14.61,17.23,24.73,16.32,11.31-1.01,19.09-7.23,22.3-18.05,2.07-6.95,2.8-14.3,4.1-21.35Z"/><path d="M334.73,248.83c.2-14.93-4.05-20.33-17.31-20.98-14.31-.71-28.58-.32-35.68,15.92-.64,1.46-3.36,3.03-4.96,2.89-18.71-1.67-37.4-3.67-55.99-5.57-.42-19.26,13.45-39.45,34.86-44.55,20.24-4.82,41.53-5.59,62.43-7.1,9.12-.66,18.49,.84,27.63,2.17,35.22,5.11,52.21,24.55,52.68,60.25,.27,20.46-.45,40.93,.22,61.37,.49,15.07,2.48,30.1,3.89,46.04-16.27,0-34.7,.24-53.11-.29-2.39-.07-5.33-3.74-6.82-6.41-1.95-3.49-2.71-7.64-4.19-12.16-25.05,23.28-54.88,26.77-86.17,20.18-34.56-7.27-49.39-45.7-29.32-73.36,7.6-10.48,18.88-15.17,30.71-18.16,17.63-4.45,35.56-7.71,53.25-11.95,9.54-2.29,18.84-5.57,27.91-8.29Zm.02,32.58c-14.39,4.32-28.23,8-41.73,12.68-11.1,3.84-15.5,11.14-13.73,20.05,1.76,8.82,9.82,13.71,21.58,13.08,24.15-1.3,36.27-17.09,33.88-45.81Z"/><path d="M842.68,241.02c.5-21.97,16.61-41.8,40.61-46.48,18.63-3.64,37.94-4.22,57-5.08,9.79-.44,19.74,1.09,29.53,2.41,32.04,4.33,50.02,24.7,50.41,57.21,.29,23.96-.49,47.95,.28,71.89,.4,12.53,3.1,24.98,4.87,38.29-17.01,0-35.44,.24-53.85-.29-2.4-.07-5.34-3.69-6.85-6.34-1.97-3.45-2.76-7.58-4.33-12.22-25.01,23.32-54.48,26.28-85.52,20.32-22.47-4.31-37.26-21.77-38.42-43.05-1.21-22.35,9.54-39.18,32.33-46.26,18.83-5.85,38.45-9.13,57.67-13.76,7.43-1.79,14.85-3.8,22.04-6.36,3.21-1.14,8.49-4.3,8.25-5.83-.77-4.99-2.38-11.22-5.97-14.16-11.16-9.16-38.25-2.41-45.69,10.27-1.26,2.14-3.81,5.27-5.52,5.13-19-1.58-37.96-3.71-56.86-5.69Zm113.96,40.33c-14.62,4.5-28.74,8.27-42.43,13.24-10.75,3.9-14.58,10.86-12.81,19.57,1.69,8.27,8.8,13.01,19.66,13.1,24.72,.2,37.9-16.13,35.57-45.91Z"/><path d="M423.93,313.08c20.01-1.93,39.05-3.97,58.14-5.36,2.47-.18,6.21,2.33,7.61,4.65,8.85,14.66,29.37,20.69,44.14,11.53,3.92-2.43,7.86-8.38,7.76-12.62-.08-3.52-5.56-8.93-9.57-9.98-16.96-4.46-34.29-7.46-51.43-11.29-6.84-1.53-13.8-3.12-20.19-5.88-16.42-7.1-26.85-19.48-28.89-37.59-2.12-18.81,4.43-34.7,20.97-44.01,10.31-5.81,22.4-10.7,33.99-11.5,20.88-1.44,42.22-1.22,62.97,1.47,23.22,3.01,37.45,18.75,45.58,41.62-19.44,1.93-38.08,3.93-56.77,5.4-1.86,.15-4.55-2.54-5.88-4.55-7.15-10.82-25.5-15.89-36.61-8.96-3.22,2.01-6.51,7.07-6.29,10.51,.21,3.29,4.49,8.29,7.78,9.05,14.27,3.29,28.91,4.97,43.28,7.89,9.98,2.02,20.09,4.21,29.52,7.9,16.55,6.48,27.69,18.57,30.16,36.63,2.73,19.97-3.72,37.66-20.69,48.4-11.5,7.28-25.37,12.21-38.83,14.69-23.68,4.38-47.81,3.3-71.41-2.25-23.93-5.63-39.06-20.5-45.36-45.74Z"/><path d="M1003.29,86.53c-1.99,1.62-2.89,2.99-3.96,3.13-13.66,1.81-14.38,10.97-13.78,22.09,.76,13.97,.18,28.01,.18,43.31-5.02,0-9.39,0-13.75,0-25.9,.04-51.8,.07-77.71,.12-10.25,.02-12.51-2.13-12.53-12.24-.04-16.29-.01-32.58-.01-49.45,.09,.1-.22-.61-.71-.78-16.76-5.86-17.76-8.01-6.83-21.78,15.1-19.03,30.88-37.52,46.44-56.19,1.63-1.95,3.61-3.62,5.52-5.32,14.76-13.14,18.91-13,29.67,3.24,16.03,24.2,31.42,48.81,47.47,73.85Zm-115.64,59.09h90.46c0-16.13-.18-31.7,.15-47.26,.06-3.1,1.38-8.3,3.24-8.87,11.05-3.42,6.98-10.64,3.63-15.85-13.76-21.36-28.26-42.24-42.65-63.55-26.76,18.21-46.58,42.46-64.39,69.94,10.65,.21,13.44,6.59,13.61,14.66,.11,5.08-.64,10.18-1.06,15.27-.96,11.64-1.95,23.28-3,35.66Z"/><path d="M911.96,99.76c3.09-5.9,4.86-13.42,9.61-17.29,5.52-4.5,29.33,.07,31.09,5.8,2.37,7.71,1.81,16.76,.47,24.9-.45,2.74-6.97,4.8-11,6.53-2.23,.95-5.02,.67-7.56,.79-19.47,.89-20.65-.27-20.14-19.46-.83-.42-1.65-.84-2.48-1.26Zm38.41-8.55h-28.58c.11,6.78-2.43,16.58,.99,19.57,4.18,3.66,14.86,4.19,19.91,1.23,4.33-2.53,4.69-11.87,7.68-20.81Z"/></svg>