<?xml version="1.0" encoding="UTF-8"?><svg id="a" xmlns="http://www.w3.org/2000/svg" viewBox="0 0 784.37 893.24"><path d="M784.37,498.05c-11.45,9.34-16.65,17.21-22.78,18.02-78.64,10.4-82.79,63.16-79.32,127.17,4.36,80.4,1.05,161.21,1.05,249.32-28.91,0-54.02-.03-79.13,0-149.09,.21-298.18,.42-447.26,.68-58.98,.1-71.99-12.25-72.14-70.44-.25-93.76-.07-187.52-.07-284.63,.51,.6-1.24-3.49-4.08-4.49-96.49-33.74-102.24-46.08-39.33-125.36,86.92-109.54,177.77-215.95,267.29-323.41,9.36-11.24,20.8-20.83,31.78-30.62,84.96-75.64,108.84-74.83,170.76,18.65,92.26,139.27,180.86,280.97,273.22,425.09ZM118.78,838.14H639.46c0-92.84-1.01-182.47,.86-272.05,.37-17.82,7.93-47.75,18.67-51.07,63.62-19.66,40.2-61.23,20.87-91.23-79.2-122.93-162.64-243.13-245.49-365.78C280.32,162.85,166.25,302.4,63.75,460.6c61.3,1.21,77.34,37.91,78.36,84.4,.64,29.23-3.66,58.59-6.08,87.87-5.52,67.01-11.25,134-17.25,205.27Z"/><path d="M258.72,574.22c17.78-33.98,28-77.25,55.33-99.5,31.79-25.88,168.83,.41,178.94,33.36,13.61,44.37,10.43,96.49,2.73,143.35-2.6,15.8-40.14,27.63-63.3,37.57-12.81,5.5-28.89,3.86-43.53,4.53-112.07,5.1-118.87-1.54-115.92-112.04-4.75-2.42-9.5-4.85-14.25-7.27Zm221.09-49.21h-164.53c.61,39.04-13.98,95.44,5.71,112.67,24.05,21.05,85.56,24.09,114.6,7.11,24.94-14.58,27-68.29,44.22-119.78Z"/></svg>