<?xml version="1.0" encoding="UTF-8" standalone="no"?>
<svg
   id="a"
   viewBox="0 0 965.84 532.02"
   version="1.1"
   sodipodi:docname="slogan.svg"
   inkscape:version="1.1.2 (b8e25be8, 2022-02-05)"
   xmlns:inkscape="http://www.inkscape.org/namespaces/inkscape"
   xmlns:sodipodi="http://sodipodi.sourceforge.net/DTD/sodipodi-0.dtd"
   xmlns="http://www.w3.org/2000/svg"
   xmlns:svg="http://www.w3.org/2000/svg">
  <sodipodi:namedview
     id="namedview101"
     pagecolor="#ffffff"
     bordercolor="#cccccc"
     borderopacity="1"
     inkscape:pageshadow="0"
     inkscape:pageopacity="1"
     inkscape:pagecheckerboard="0"
     showgrid="false"
     inkscape:zoom="0.38205387"
     inkscape:cx="467.2116"
     inkscape:cy="238.18631"
     inkscape:window-width="1142"
     inkscape:window-height="486"
     inkscape:window-x="3"
     inkscape:window-y="25"
     inkscape:window-maximized="0"
     inkscape:current-layer="a" />
  <defs
     id="defs4">
    <style
       id="style2">.b{fill:#fff;}</style>
  </defs>
  <g
     id="g90"
     transform="matrix(0.97289994,0,0,0.92324247,20.939456,193.68995)">
    <path
       d="m 0,0.8 h 26.98 c 4.5,0 7.95,1.11 10.35,3.34 2.4,2.23 3.61,4.98 3.61,8.27 0,2.76 -0.86,5.12 -2.58,7.09 -1.15,1.32 -2.82,2.35 -5.03,3.12 3.35,0.81 5.82,2.19 7.4,4.15 1.58,1.96 2.37,4.43 2.37,7.4 0,2.42 -0.56,4.59 -1.69,6.52 -1.12,1.93 -2.66,3.46 -4.61,4.58 -1.21,0.7 -3.03,1.21 -5.47,1.53 -3.24,0.42 -5.4,0.64 -6.46,0.64 H 0 Z m 14.54,18.29 h 6.27 c 2.25,0 3.81,-0.39 4.69,-1.16 0.88,-0.77 1.32,-1.89 1.32,-3.36 0,-1.36 -0.44,-2.42 -1.32,-3.18 -0.88,-0.76 -2.41,-1.15 -4.6,-1.15 h -6.36 v 8.84 z m 0,18.32 h 7.35 c 2.48,0 4.23,-0.44 5.25,-1.32 1.02,-0.88 1.53,-2.06 1.53,-3.55 0,-1.38 -0.5,-2.49 -1.51,-3.32 -1.01,-0.83 -2.77,-1.26 -5.3,-1.26 h -7.32 z"
       id="path6" />
    <path
       d="m 79.31,0.8 h 14.38 v 27.78 c 0,2.76 -0.43,5.36 -1.29,7.8 -0.86,2.45 -2.21,4.59 -4.04,6.42 -1.83,1.83 -3.76,3.12 -5.77,3.86 -2.8,1.04 -6.16,1.56 -10.08,1.56 -2.27,0 -4.75,-0.16 -7.43,-0.48 C 62.4,47.42 60.15,46.79 58.35,45.85 56.55,44.91 54.9,43.57 53.4,41.83 51.9,40.09 50.88,38.3 50.33,36.46 49.44,33.49 48.99,30.87 48.99,28.58 V 0.8 h 14.38 v 28.44 c 0,2.54 0.7,4.53 2.12,5.96 1.41,1.43 3.37,2.15 5.87,2.15 2.5,0 4.43,-0.7 5.84,-2.11 1.41,-1.41 2.12,-3.41 2.12,-5.99 V 0.8 Z"
       id="path8" />
    <path
       d="m 103.81,0.8 h 14.44 v 46.63 h -14.44 z"
       id="path10" />
    <path
       d="M 128.59,0.8 H 143 v 35.15 h 22.49 v 11.48 h -36.9 z"
       id="path12" />
    <path
       d="m 172.24,0.8 h 21.41 c 4.22,0 7.63,0.57 10.23,1.72 2.6,1.15 4.75,2.79 6.44,4.93 1.7,2.14 2.93,4.63 3.69,7.48 0.76,2.84 1.15,5.85 1.15,9.03 0,4.98 -0.57,8.85 -1.7,11.6 -1.14,2.75 -2.71,5.05 -4.72,6.9 -2.02,1.86 -4.18,3.09 -6.49,3.71 -3.16,0.85 -6.02,1.27 -8.59,1.27 H 172.25 V 0.8 Z m 14.41,10.56 v 25.48 h 3.53 c 3.01,0 5.15,-0.33 6.43,-1 1.27,-0.67 2.27,-1.83 2.99,-3.5 0.72,-1.67 1.08,-4.36 1.08,-8.1 0,-4.94 -0.81,-8.32 -2.42,-10.15 -1.61,-1.82 -4.28,-2.74 -8.02,-2.74 h -3.59 z"
       id="path14" />
    <path
       d="m 273.12,39.73 h -16.36 l -2.27,7.7 H 239.78 L 257.3,0.8 h 15.72 l 17.52,46.64 h -15.09 l -2.33,-7.7 z m -2.99,-10.08 -5.15,-16.77 -5.09,16.77 z"
       id="path16" />
    <path
       d="m 313.58,0.8 h 43.81 v 11.51 h -14.7 V 47.43 H 328.28 V 12.31 h -14.7 z"
       id="path18" />
    <path
       d="m 363.88,0.8 h 38.62 v 9.95 h -24.18 v 7.41 h 22.43 v 9.51 h -22.43 v 9.19 h 24.88 v 10.56 h -39.32 z"
       id="path20" />
    <path
       d="M 439.63,39.73 H 423.27 L 421,47.43 H 406.29 L 423.81,0.8 h 15.72 l 17.52,46.64 h -15.09 l -2.33,-7.7 z m -2.99,-10.08 -5.15,-16.77 -5.09,16.77 z"
       id="path22" />
    <path
       d="m 461.48,0.8 h 18.95 L 487.74,29.18 495,0.8 h 18.94 v 46.63 h -11.8 V 11.87 l -9.09,35.57 h -10.68 l -9.08,-35.57 v 35.56 h -11.8 V 0.8 Z"
       id="path24" />
    <path
       d="m 542.35,32 13.71,-0.86 c 0.3,2.23 0.9,3.92 1.81,5.09 1.48,1.89 3.6,2.83 6.36,2.83 2.06,0 3.64,-0.48 4.76,-1.45 1.11,-0.97 1.67,-2.08 1.67,-3.36 0,-1.28 -0.53,-2.29 -1.59,-3.24 -1.06,-0.95 -3.52,-1.86 -7.38,-2.7 -6.32,-1.42 -10.83,-3.31 -13.52,-5.66 -2.71,-2.35 -4.07,-5.35 -4.07,-9 0,-2.4 0.7,-4.66 2.08,-6.79 1.39,-2.13 3.48,-3.81 6.27,-5.03 2.79,-1.22 6.61,-1.83 11.47,-1.83 5.96,0 10.5,1.11 13.63,3.32 3.13,2.21 4.99,5.74 5.58,10.58 l -13.58,0.8 c -0.36,-2.1 -1.12,-3.63 -2.27,-4.58 -1.15,-0.95 -2.75,-1.43 -4.79,-1.43 -1.68,0 -2.94,0.36 -3.79,1.07 -0.85,0.71 -1.27,1.57 -1.27,2.59 0,0.74 0.35,1.41 1.05,2 0.68,0.62 2.29,1.19 4.84,1.72 6.3,1.36 10.81,2.73 13.54,4.12 2.72,1.39 4.71,3.11 5.95,5.17 1.24,2.06 1.86,4.36 1.86,6.9 0,2.99 -0.83,5.75 -2.48,8.27 -1.65,2.52 -3.97,4.44 -6.94,5.74 -2.97,1.3 -6.71,1.96 -11.23,1.96 -7.93,0 -13.43,-1.53 -16.48,-4.58 -3.05,-3.05 -4.78,-6.94 -5.18,-11.64 z"
       id="path26" />
    <path
       d="m 590.1,24.15 c 0,-7.61 2.12,-13.54 6.36,-17.78 4.24,-4.24 10.15,-6.36 17.72,-6.36 7.57,0 13.74,2.08 17.94,6.25 4.2,4.17 6.3,10 6.3,17.51 0,5.45 -0.92,9.92 -2.75,13.41 -1.84,3.49 -4.49,6.2 -7.95,8.14 -3.47,1.94 -7.79,2.91 -12.96,2.91 -5.17,0 -9.61,-0.84 -13.06,-2.51 -3.45,-1.68 -6.24,-4.33 -8.38,-7.95 -2.14,-3.62 -3.21,-8.17 -3.21,-13.62 z m 14.41,0.06 c 0,4.71 0.88,8.09 2.62,10.15 1.75,2.06 4.13,3.09 7.14,3.09 3.01,0 5.49,-1.01 7.19,-3.02 1.7,-2.01 2.55,-5.63 2.55,-10.85 0,-4.39 -0.89,-7.6 -2.66,-9.62 -1.77,-2.03 -4.17,-3.04 -7.21,-3.04 -3.04,0 -5.24,1.03 -7,3.09 -1.76,2.06 -2.64,5.46 -2.64,10.21 z"
       id="path28" />
    <path
       d="m 665.4,32 13.71,-0.86 c 0.3,2.23 0.9,3.92 1.81,5.09 1.48,1.89 3.6,2.83 6.36,2.83 2.06,0 3.64,-0.48 4.76,-1.45 1.11,-0.97 1.67,-2.08 1.67,-3.36 0,-1.28 -0.53,-2.29 -1.59,-3.24 -1.06,-0.95 -3.52,-1.86 -7.38,-2.7 -6.32,-1.42 -10.83,-3.31 -13.52,-5.66 -2.71,-2.35 -4.07,-5.35 -4.07,-9 0,-2.4 0.7,-4.66 2.08,-6.79 1.39,-2.13 3.48,-3.81 6.27,-5.03 2.79,-1.22 6.61,-1.83 11.47,-1.83 5.96,0 10.5,1.11 13.63,3.32 3.13,2.22 4.99,5.74 5.58,10.58 l -13.58,0.8 c -0.36,-2.1 -1.12,-3.63 -2.27,-4.58 -1.15,-0.95 -2.75,-1.43 -4.79,-1.43 -1.68,0 -2.94,0.36 -3.79,1.07 -0.85,0.71 -1.27,1.57 -1.27,2.59 0,0.74 0.35,1.41 1.05,2 0.68,0.62 2.29,1.19 4.84,1.72 6.3,1.36 10.81,2.73 13.54,4.12 2.72,1.39 4.71,3.11 5.95,5.17 1.24,2.06 1.86,4.36 1.86,6.9 0,2.99 -0.83,5.75 -2.48,8.27 -1.65,2.52 -3.97,4.44 -6.94,5.74 -2.97,1.3 -6.71,1.96 -11.23,1.96 -7.93,0 -13.43,-1.53 -16.48,-4.58 -3.05,-3.05 -4.78,-6.94 -5.18,-11.64 z"
       id="path30" />
    <path
       d="M 711.69,0.8 H 755.5 V 12.31 H 740.8 V 47.43 H 726.39 V 12.31 h -14.7 V 0.8 Z"
       id="path32" />
    <path
       d="M 762.21,47.43 V 0.8 h 24.02 c 4.45,0 7.86,0.38 10.21,1.15 2.35,0.77 4.25,2.18 5.7,4.25 1.44,2.07 2.16,4.59 2.16,7.56 0,2.59 -0.55,4.82 -1.66,6.7 -1.1,1.88 -2.62,3.4 -4.55,4.56 -1.23,0.74 -2.92,1.36 -5.06,1.85 1.72,0.57 2.97,1.15 3.75,1.72 0.53,0.38 1.3,1.2 2.3,2.45 1,1.25 1.68,2.22 2.02,2.9 l 6.98,13.51 H 791.8 L 784.1,33.2 c -0.98,-1.85 -1.85,-3.04 -2.61,-3.59 -1.04,-0.72 -2.22,-1.08 -3.53,-1.08 h -1.27 v 18.93 h -14.48 z m 14.48,-27.74 h 6.08 c 0.66,0 1.93,-0.21 3.82,-0.64 0.95,-0.19 1.73,-0.68 2.34,-1.46 0.6,-0.78 0.91,-1.69 0.91,-2.7 0,-1.51 -0.48,-2.66 -1.43,-3.47 -0.96,-0.81 -2.75,-1.21 -5.38,-1.21 h -6.33 v 9.48 z"
       id="path34" />
    <path
       d="m 809.77,24.15 c 0,-7.61 2.12,-13.54 6.36,-17.78 4.24,-4.24 10.15,-6.36 17.72,-6.36 7.57,0 13.74,2.08 17.94,6.25 4.2,4.17 6.3,10 6.3,17.51 0,5.45 -0.92,9.92 -2.75,13.41 -1.84,3.49 -4.49,6.2 -7.95,8.14 -3.47,1.94 -7.79,2.91 -12.96,2.91 -5.17,0 -9.61,-0.84 -13.06,-2.51 -3.45,-1.68 -6.24,-4.33 -8.38,-7.95 -2.14,-3.63 -3.21,-8.17 -3.21,-13.62 z m 14.41,0.06 c 0,4.71 0.88,8.09 2.62,10.15 1.75,2.06 4.13,3.09 7.14,3.09 3.01,0 5.49,-1.01 7.19,-3.02 1.7,-2.01 2.55,-5.63 2.55,-10.85 0,-4.39 -0.89,-7.6 -2.66,-9.62 -1.77,-2.03 -4.17,-3.04 -7.21,-3.04 -3.04,0 -5.24,1.03 -7,3.09 -1.76,2.06 -2.64,5.46 -2.64,10.21 z"
       id="path36" />
    <path
       d="m 865.95,0.8 h 13.46 l 17.56,25.8 V 0.8 h 13.58 V 47.43 H 896.97 L 879.51,21.82 V 47.43 H 865.96 V 0.8 Z"
       id="path38" />
    <path
       d="m 943.57,30.54 v -9.7 h 22.27 v 19.88 c -4.26,2.91 -8.03,4.88 -11.31,5.93 -3.28,1.05 -7.16,1.57 -11.66,1.57 -5.53,0 -10.05,-0.94 -13.54,-2.83 -3.49,-1.89 -6.19,-4.7 -8.11,-8.43 -1.92,-3.73 -2.88,-8.02 -2.88,-12.85 0,-5.09 1.05,-9.52 3.15,-13.28 2.1,-3.76 5.18,-6.62 9.23,-8.57 3.16,-1.51 7.41,-2.26 12.76,-2.26 5.35,0 9.01,0.47 11.56,1.4 2.55,0.93 4.68,2.38 6.36,4.34 1.69,1.96 2.95,4.45 3.8,7.46 l -13.9,2.48 c -0.57,-1.76 -1.54,-3.11 -2.91,-4.04 -1.37,-0.93 -3.11,-1.4 -5.23,-1.4 -3.16,0 -5.68,1.1 -7.56,3.29 -1.88,2.2 -2.82,5.67 -2.82,10.42 0,5.05 0.95,8.65 2.85,10.82 1.9,2.16 4.54,3.24 7.94,3.24 1.61,0 3.15,-0.23 4.61,-0.7 1.46,-0.47 3.14,-1.26 5.03,-2.39 v -4.39 h -9.64 z"
       id="path40" />
    <path
       d="m 27.18,78.98 h 16.01 l 9.4,15.73 9.42,-15.73 h 15.92 l -18.13,27.1 v 19.53 H 45.36 V 106.08 L 27.19,78.98 Z"
       id="path42" />
    <path
       d="m 76.84,102.33 c 0,-7.61 2.12,-13.54 6.36,-17.78 4.24,-4.24 10.15,-6.36 17.72,-6.36 7.57,0 13.74,2.08 17.94,6.25 4.2,4.17 6.3,10 6.3,17.51 0,5.45 -0.92,9.92 -2.75,13.41 -1.83,3.49 -4.49,6.2 -7.95,8.14 -3.47,1.94 -7.79,2.91 -12.96,2.91 -5.17,0 -9.61,-0.84 -13.06,-2.51 -3.45,-1.68 -6.24,-4.33 -8.38,-7.95 -2.14,-3.63 -3.21,-8.17 -3.21,-13.62 z m 14.41,0.06 c 0,4.71 0.88,8.09 2.62,10.15 1.75,2.06 4.13,3.09 7.14,3.09 3.01,0 5.49,-1.01 7.19,-3.02 1.7,-2.01 2.55,-5.63 2.55,-10.85 0,-4.39 -0.89,-7.6 -2.66,-9.62 -1.77,-2.03 -4.17,-3.04 -7.21,-3.04 -3.04,0 -5.24,1.03 -7,3.09 -1.76,2.06 -2.64,5.46 -2.64,10.21 z"
       id="path44" />
    <path
       d="m 163.28,78.98 h 14.38 v 27.79 c 0,2.76 -0.43,5.36 -1.29,7.8 -0.86,2.45 -2.21,4.59 -4.04,6.42 -1.83,1.83 -3.76,3.12 -5.77,3.86 -2.8,1.04 -6.16,1.56 -10.08,1.56 -2.27,0 -4.75,-0.16 -7.43,-0.48 -2.68,-0.32 -4.93,-0.95 -6.73,-1.89 -1.8,-0.94 -3.45,-2.28 -4.95,-4.02 -1.5,-1.74 -2.52,-3.53 -3.07,-5.37 -0.89,-2.97 -1.34,-5.59 -1.34,-7.88 V 78.98 h 14.38 v 28.45 c 0,2.54 0.7,4.53 2.12,5.96 1.41,1.43 3.37,2.15 5.87,2.15 2.5,0 4.43,-0.7 5.84,-2.11 1.41,-1.41 2.12,-3.41 2.12,-5.99 V 78.99 Z"
       id="path46" />
    <path
       d="m 209.12,78.98 h 21.41 c 4.22,0 7.63,0.57 10.23,1.72 2.6,1.15 4.75,2.79 6.44,4.93 1.7,2.14 2.93,4.63 3.69,7.48 0.76,2.84 1.15,5.85 1.15,9.03 0,4.98 -0.57,8.85 -1.7,11.6 -1.14,2.75 -2.71,5.05 -4.72,6.9 -2.02,1.86 -4.18,3.09 -6.49,3.71 -3.16,0.85 -6.02,1.27 -8.59,1.27 H 209.13 V 78.98 Z m 14.41,10.56 v 25.48 h 3.53 c 3.01,0 5.15,-0.33 6.43,-1 1.27,-0.67 2.27,-1.83 2.99,-3.5 0.72,-1.67 1.08,-4.36 1.08,-8.1 0,-4.94 -0.81,-8.32 -2.42,-10.15 -1.61,-1.82 -4.28,-2.74 -8.02,-2.74 h -3.59 z"
       id="path48" />
    <path
       d="m 257.8,102.33 c 0,-7.61 2.12,-13.54 6.36,-17.78 4.24,-4.24 10.15,-6.36 17.72,-6.36 7.57,0 13.74,2.08 17.94,6.25 4.2,4.17 6.3,10 6.3,17.51 0,5.45 -0.92,9.92 -2.75,13.41 -1.83,3.49 -4.49,6.2 -7.95,8.14 -3.47,1.94 -7.79,2.91 -12.96,2.91 -5.17,0 -9.61,-0.84 -13.06,-2.51 -3.45,-1.68 -6.24,-4.33 -8.38,-7.95 -2.14,-3.63 -3.21,-8.17 -3.21,-13.62 z m 14.41,0.06 c 0,4.71 0.88,8.09 2.62,10.15 1.75,2.06 4.13,3.09 7.14,3.09 3.01,0 5.49,-1.01 7.19,-3.02 1.7,-2.01 2.55,-5.63 2.55,-10.85 0,-4.39 -0.89,-7.6 -2.66,-9.62 -1.77,-2.03 -4.17,-3.04 -7.21,-3.04 -3.04,0 -5.24,1.03 -7,3.09 -1.76,2.06 -2.64,5.46 -2.64,10.21 z"
       id="path50" />
    <path
       d="m 313.98,78.98 h 13.46 l 17.56,25.8 v -25.8 h 13.58 v 46.64 H 345 l -17.47,-25.61 v 25.61 h -13.55 z"
       id="path52" />
    <path
       d="m 365.61,78.18 h 13.84 v 10.66 c 0,3.92 -0.82,7.03 -2.45,9.3 -1.63,2.28 -4.42,4.28 -8.37,6 l -3.02,-5.66 c 2.46,-1.15 4.15,-2.29 5.07,-3.42 0.92,-1.13 1.44,-2.48 1.54,-4.02 H 365.6 V 78.19 Z"
       id="path54" />
    <path
       d="m 382.98,78.98 h 43.81 V 90.5 h -14.7 v 35.12 H 397.68 V 90.5 h -14.7 z"
       id="path56" />
    <path
       d="m 455.1,78.98 h 14.41 V 96.6 l 15.1,-17.62 h 19.17 l -17.02,17.6 17.78,29.03 h -17.75 l -9.83,-19.18 -7.45,7.8 v 11.38 H 455.1 V 78.97 Z"
       id="path58" />
    <path
       d="m 509.4,78.98 h 13.46 l 17.56,25.8 V 78.98 H 554 v 46.64 h -13.58 l -17.46,-25.61 v 25.61 H 509.41 V 78.98 Z"
       id="path60" />
    <path
       d="m 561.77,102.33 c 0,-7.61 2.12,-13.54 6.36,-17.78 4.24,-4.24 10.15,-6.36 17.72,-6.36 7.57,0 13.74,2.08 17.94,6.25 4.2,4.17 6.3,10 6.3,17.51 0,5.45 -0.92,9.92 -2.75,13.41 -1.84,3.49 -4.49,6.2 -7.95,8.14 -3.47,1.94 -7.79,2.91 -12.96,2.91 -5.17,0 -9.61,-0.84 -13.06,-2.51 -3.45,-1.68 -6.24,-4.33 -8.38,-7.95 -2.14,-3.62 -3.21,-8.17 -3.21,-13.62 z m 14.41,0.06 c 0,4.71 0.88,8.09 2.62,10.15 1.75,2.06 4.13,3.09 7.14,3.09 3.01,0 5.49,-1.01 7.19,-3.02 1.7,-2.01 2.55,-5.63 2.55,-10.85 0,-4.39 -0.89,-7.6 -2.66,-9.62 -1.77,-2.03 -4.17,-3.04 -7.21,-3.04 -3.04,0 -5.24,1.03 -7,3.09 -1.76,2.06 -2.64,5.46 -2.64,10.21 z"
       id="path62" />
    <path
       d="m 611.94,78.98 h 13.69 l 4.93,26.11 7.21,-26.11 h 13.64 l 7.23,26.07 4.93,-26.07 h 13.62 l -10.28,46.64 h -14.13 l -8.18,-29.36 -8.15,29.36 h -14.13 z"
       id="path64" />
    <path
       d="m 698.82,78.98 h 13.69 l 4.93,26.11 7.21,-26.11 h 13.64 l 7.23,26.07 4.93,-26.07 h 13.62 l -10.28,46.64 h -14.13 l -8.18,-29.36 -8.15,29.36 H 709.2 Z"
       id="path66" />
    <path
       d="m 768.84,78.98 h 14.41 V 95.3 H 799 V 78.98 h 14.48 v 46.64 H 799 v -18.87 h -15.75 v 18.87 h -14.41 z"
       id="path68" />
    <path
       d="m 821.23,102.33 c 0,-7.61 2.12,-13.54 6.36,-17.78 4.24,-4.24 10.15,-6.36 17.72,-6.36 7.57,0 13.74,2.08 17.94,6.25 4.2,4.17 6.3,10 6.3,17.51 0,5.45 -0.92,9.92 -2.75,13.41 -1.84,3.49 -4.49,6.2 -7.95,8.14 -3.47,1.94 -7.79,2.91 -12.96,2.91 -5.17,0 -9.61,-0.84 -13.06,-2.51 -3.45,-1.68 -6.24,-4.33 -8.38,-7.95 -2.14,-3.63 -3.21,-8.17 -3.21,-13.62 z m 14.41,0.06 c 0,4.71 0.88,8.09 2.62,10.15 1.75,2.06 4.13,3.09 7.14,3.09 3.01,0 5.49,-1.01 7.19,-3.02 1.7,-2.01 2.55,-5.63 2.55,-10.85 0,-4.39 -0.89,-7.6 -2.66,-9.62 -1.77,-2.03 -4.17,-3.04 -7.21,-3.04 -3.04,0 -5.24,1.03 -7,3.09 -1.76,2.06 -2.64,5.46 -2.64,10.21 z"
       id="path70" />
    <path
       d="m 874.78,78.18 h 13.84 v 10.66 c 0,3.92 -0.82,7.03 -2.45,9.3 -1.63,2.28 -4.42,4.28 -8.37,6 l -3.02,-5.66 c 2.46,-1.15 4.15,-2.29 5.07,-3.42 0.92,-1.13 1.44,-2.48 1.54,-4.02 h -6.62 V 78.19 Z"
       id="path72" />
    <path
       d="m 892.91,110.19 13.71,-0.86 c 0.3,2.23 0.9,3.92 1.81,5.09 1.48,1.89 3.61,2.83 6.36,2.83 2.06,0 3.64,-0.48 4.76,-1.45 1.11,-0.97 1.67,-2.08 1.67,-3.36 0,-1.28 -0.53,-2.29 -1.59,-3.24 -1.06,-0.95 -3.52,-1.86 -7.38,-2.7 -6.32,-1.42 -10.83,-3.31 -13.52,-5.66 -2.72,-2.35 -4.07,-5.35 -4.07,-9 0,-2.4 0.69,-4.66 2.08,-6.79 1.39,-2.13 3.48,-3.81 6.27,-5.03 2.79,-1.22 6.61,-1.83 11.47,-1.83 5.96,0 10.5,1.11 13.63,3.32 3.13,2.22 4.99,5.74 5.58,10.58 l -13.58,0.8 c -0.36,-2.1 -1.12,-3.63 -2.27,-4.58 -1.15,-0.95 -2.75,-1.43 -4.79,-1.43 -1.68,0 -2.94,0.36 -3.79,1.07 -0.85,0.71 -1.27,1.57 -1.27,2.59 0,0.74 0.35,1.41 1.05,2 0.68,0.62 2.29,1.19 4.84,1.72 6.3,1.36 10.81,2.73 13.54,4.12 2.73,1.39 4.71,3.11 5.95,5.17 1.24,2.06 1.86,4.36 1.86,6.9 0,2.99 -0.83,5.75 -2.48,8.27 -1.65,2.52 -3.97,4.44 -6.94,5.74 -2.97,1.3 -6.71,1.96 -11.23,1.96 -7.93,0 -13.43,-1.53 -16.48,-4.58 -3.05,-3.05 -4.78,-6.94 -5.18,-11.64 z"
       id="path74" />
    <path
       d="m 299.33,157.16 h 43.81 v 11.52 h -14.7 v 35.12 h -14.41 v -35.12 h -14.7 z"
       id="path76" />
    <path
       d="m 349.72,157.16 h 14.41 v 16.32 h 15.75 v -16.32 h 14.47 v 46.64 h -14.47 v -18.86 h -15.75 v 18.86 h -14.41 z"
       id="path78" />
    <path
       d="m 403.9,157.16 h 38.62 v 9.96 h -24.18 v 7.41 h 22.43 v 9.51 h -22.43 v 9.19 h 24.88 v 10.56 H 403.9 v -46.64 z"
       id="path80" />
    <path
       d="m 472.74,157.16 h 26.98 c 4.5,0 7.95,1.11 10.35,3.34 2.41,2.23 3.61,4.98 3.61,8.27 0,2.76 -0.86,5.12 -2.58,7.09 -1.15,1.31 -2.82,2.35 -5.03,3.12 3.35,0.81 5.82,2.19 7.4,4.15 1.58,1.96 2.37,4.43 2.37,7.4 0,2.42 -0.56,4.59 -1.69,6.52 -1.12,1.93 -2.66,3.46 -4.61,4.58 -1.21,0.7 -3.03,1.21 -5.47,1.53 -3.25,0.42 -5.4,0.64 -6.46,0.64 h -24.88 v -46.64 z m 14.54,18.29 h 6.27 c 2.25,0 3.81,-0.39 4.69,-1.16 0.88,-0.77 1.32,-1.89 1.32,-3.36 0,-1.36 -0.44,-2.42 -1.32,-3.18 -0.88,-0.76 -2.41,-1.15 -4.6,-1.15 h -6.36 v 8.84 z m 0,18.32 h 7.35 c 2.48,0 4.23,-0.44 5.25,-1.32 1.02,-0.88 1.53,-2.06 1.53,-3.55 0,-1.38 -0.5,-2.49 -1.51,-3.32 -1.01,-0.84 -2.77,-1.26 -5.3,-1.26 h -7.32 z"
       id="path82" />
    <path
       d="m 521.57,180.51 c 0,-7.61 2.12,-13.54 6.36,-17.78 4.24,-4.24 10.15,-6.36 17.72,-6.36 7.57,0 13.74,2.08 17.94,6.25 4.2,4.17 6.3,10 6.3,17.51 0,5.45 -0.92,9.92 -2.75,13.41 -1.83,3.49 -4.49,6.2 -7.95,8.14 -3.47,1.94 -7.79,2.91 -12.96,2.91 -5.17,0 -9.61,-0.84 -13.06,-2.51 -3.45,-1.67 -6.24,-4.33 -8.38,-7.95 -2.14,-3.63 -3.21,-8.16 -3.21,-13.62 z m 14.41,0.06 c 0,4.71 0.88,8.09 2.62,10.15 1.75,2.06 4.13,3.09 7.14,3.09 3.01,0 5.49,-1.01 7.19,-3.02 1.7,-2.02 2.55,-5.63 2.55,-10.85 0,-4.39 -0.89,-7.6 -2.66,-9.62 -1.77,-2.02 -4.17,-3.04 -7.21,-3.04 -3.04,0 -5.24,1.03 -7,3.09 -1.76,2.06 -2.64,5.46 -2.64,10.21 z"
       id="path84" />
    <path
       d="m 575.15,188.37 13.71,-0.86 c 0.3,2.23 0.9,3.92 1.81,5.09 1.49,1.89 3.61,2.83 6.36,2.83 2.06,0 3.64,-0.48 4.76,-1.45 1.11,-0.97 1.67,-2.08 1.67,-3.36 0,-1.28 -0.53,-2.29 -1.59,-3.24 -1.06,-0.95 -3.52,-1.86 -7.38,-2.7 -6.32,-1.42 -10.83,-3.31 -13.52,-5.66 -2.72,-2.35 -4.07,-5.35 -4.07,-9 0,-2.4 0.69,-4.66 2.08,-6.79 1.39,-2.13 3.48,-3.81 6.27,-5.03 2.79,-1.22 6.61,-1.83 11.47,-1.83 5.96,0 10.5,1.11 13.63,3.32 3.13,2.22 4.99,5.74 5.58,10.58 l -13.58,0.8 c -0.36,-2.1 -1.12,-3.63 -2.27,-4.58 -1.16,-0.96 -2.75,-1.43 -4.79,-1.43 -1.68,0 -2.94,0.36 -3.79,1.07 -0.85,0.71 -1.27,1.57 -1.27,2.59 0,0.74 0.35,1.41 1.05,2 0.68,0.61 2.29,1.19 4.84,1.72 6.3,1.36 10.81,2.73 13.54,4.12 2.73,1.39 4.71,3.11 5.95,5.17 1.24,2.06 1.86,4.36 1.86,6.9 0,2.99 -0.83,5.75 -2.48,8.27 -1.65,2.52 -3.97,4.44 -6.93,5.74 -2.97,1.3 -6.71,1.96 -11.23,1.96 -7.93,0 -13.43,-1.53 -16.48,-4.58 -3.05,-3.05 -4.78,-6.93 -5.19,-11.64 z"
       id="path86" />
    <path
       d="m 622.2,188.37 13.71,-0.86 c 0.3,2.23 0.9,3.92 1.81,5.09 1.48,1.89 3.61,2.83 6.36,2.83 2.06,0 3.64,-0.48 4.76,-1.45 1.12,-0.97 1.67,-2.08 1.67,-3.36 0,-1.28 -0.53,-2.29 -1.59,-3.24 -1.06,-0.95 -3.52,-1.86 -7.38,-2.7 -6.32,-1.42 -10.83,-3.31 -13.52,-5.66 -2.72,-2.35 -4.07,-5.35 -4.07,-9 0,-2.4 0.69,-4.66 2.08,-6.79 1.39,-2.13 3.48,-3.81 6.27,-5.03 2.79,-1.22 6.61,-1.83 11.47,-1.83 5.96,0 10.5,1.11 13.63,3.32 3.13,2.21 4.99,5.74 5.58,10.58 l -13.58,0.8 c -0.36,-2.1 -1.12,-3.63 -2.28,-4.58 -1.15,-0.96 -2.75,-1.43 -4.79,-1.43 -1.68,0 -2.94,0.36 -3.79,1.07 -0.85,0.71 -1.27,1.57 -1.27,2.59 0,0.74 0.35,1.41 1.05,2 0.68,0.61 2.29,1.19 4.84,1.72 6.3,1.36 10.81,2.73 13.54,4.12 2.72,1.39 4.71,3.11 5.95,5.17 1.24,2.06 1.86,4.36 1.86,6.9 0,2.99 -0.83,5.75 -2.48,8.27 -1.65,2.52 -3.97,4.44 -6.94,5.74 -2.97,1.3 -6.71,1.96 -11.23,1.96 -7.93,0 -13.42,-1.53 -16.48,-4.58 -3.06,-3.05 -4.78,-6.93 -5.19,-11.64 z"
       id="path88" />
  </g>
</svg>
